<?xml version="1.0" standalone="no"?>
<!DOCTYPE svg PUBLIC "-//W3C//DTD SVG 20010904//EN"
 "http://www.w3.org/TR/2001/REC-SVG-20010904/DTD/svg10.dtd">
<svg version="1.0" xmlns="http://www.w3.org/2000/svg"
 width="984.000000pt" height="462.000000pt" viewBox="0 0 984.000000 462.000000"
 preserveAspectRatio="xMidYMid meet">

<g transform="translate(0.000000,462.000000) scale(0.100000,-0.100000)"
fill="#000000" stroke="none">
<path d="M453 4162 l-453 -447 0 -80 0 -80 244 -244 244 -244 159 156 158 156
-120 121 -120 120 177 177 176 176 506 -499 505 -499 -335 -334 -335 -334 336
-331 337 -331 -507 -499 -507 -499 -174 174 -174 174 114 121 115 121 -157
156 -157 157 -243 -243 -242 -242 0 -81 0 -82 458 -450 458 -451 240 238 c131
130 503 498 827 817 l587 579 -337 338 -338 338 339 335 339 334 -509 502
c-280 276 -651 643 -824 815 -174 172 -320 313 -325 312 -6 0 -214 -201 -462
-447z"/>
<path d="M3860 2685 l0 -965 758 0 757 0 128 128 127 127 0 295 0 295 -100
100 -100 100 65 65 65 64 0 251 0 250 -128 128 -127 127 -723 0 -722 0 0 -965z
m1264 544 c26 -20 26 -22 26 -152 0 -120 -2 -133 -22 -154 l-21 -23 -424 0
-423 0 0 168 c0 93 3 172 7 175 3 4 192 7 418 7 402 0 413 -1 439 -21z m78
-766 c16 -14 18 -33 18 -153 0 -130 -1 -138 -23 -158 l-24 -22 -454 2 -454 3
-3 173 -2 172 461 0 c416 0 464 -2 481 -17z"/>
<path d="M5910 2685 l0 -965 900 0 c589 0 900 3 900 10 0 5 -44 98 -97 205
l-98 195 -597 0 -598 0 0 760 0 760 -205 0 -205 0 0 -965z"/>
<path d="M7990 2685 l0 -965 205 0 205 0 0 404 c0 287 3 407 11 412 7 4 180
-162 423 -405 l411 -411 300 0 300 0 -560 560 -560 560 405 405 405 405 -305
0 -305 -1 -260 -253 -260 -254 -3 254 -2 254 -205 0 -205 0 0 -965z"/>
<path d="M0 2310 l0 -962 68 60 c37 33 138 132 225 219 l157 158 -2 529 -3
528 -222 216 -223 215 0 -963z"/>
<path d="M2434 2576 l-269 -265 270 -270 270 -270 274 268 275 268 -268 264
c-148 145 -272 265 -276 267 -4 1 -128 -116 -276 -262z"/>
<path d="M5450 1299 c-65 -26 -100 -85 -100 -167 0 -65 21 -108 72 -145 39
-29 140 -30 188 -1 35 20 35 21 38 97 l3 77 -71 0 c-68 0 -70 -1 -70 -25 0
-23 4 -25 45 -25 45 0 45 0 45 -36 0 -31 -4 -37 -36 -50 -108 -45 -200 62
-148 172 29 60 102 81 166 48 27 -14 32 -14 45 -1 9 8 12 20 8 27 -21 34 -130
51 -185 29z"/>
<path d="M4300 1135 l0 -165 125 0 125 0 0 25 c0 25 0 25 -95 25 l-95 0 0 45
0 45 90 0 c89 0 90 0 90 25 0 25 -1 25 -90 25 l-90 0 0 45 0 45 95 0 c95 0 95
0 95 25 l0 25 -125 0 -125 0 0 -165z"/>
<path d="M4810 1135 l0 -165 25 0 25 0 0 111 c0 61 4 109 9 107 5 -1 48 -51
95 -110 57 -72 93 -108 106 -108 19 0 20 8 20 165 l0 165 -25 0 c-24 0 -24 0
-27 -112 l-3 -113 -90 112 c-66 83 -96 113 -112 113 -23 0 -23 -1 -23 -165z"/>
<path d="M5910 1135 l0 -165 125 0 125 0 0 25 c0 24 -1 24 -97 27 l-98 3 -3
43 -3 42 95 0 c95 0 96 0 96 25 0 24 -2 24 -92 27 l-93 3 -3 43 -3 42 95 0
c96 0 96 0 96 25 l0 25 -120 0 -120 0 0 -165z"/>
<path d="M6410 1135 l0 -165 30 0 29 0 3 112 3 112 90 -112 c67 -83 96 -112
112 -112 23 0 23 0 23 165 l0 165 -30 0 -29 0 -3 -110 -3 -109 -88 109 c-69
87 -93 110 -112 110 l-25 0 0 -165z"/>
<path d="M6970 1135 l0 -165 30 0 30 0 0 70 0 70 85 0 85 0 0 -70 c0 -68 1
-70 25 -70 l25 0 0 165 0 165 -25 0 c-24 0 -25 -2 -25 -70 l0 -70 -85 0 -85 0
0 70 0 70 -30 0 -30 0 0 -165z"/>
<path d="M7575 1164 c-33 -75 -66 -149 -73 -165 -12 -28 -11 -29 18 -29 25 0
32 6 44 35 l15 35 89 0 88 0 17 -35 c13 -28 22 -35 46 -35 l30 0 -74 163 c-72
160 -73 162 -106 165 l-34 2 -60 -136z m130 -2 c15 -34 26 -65 23 -68 -3 -3
-33 -4 -65 -2 l-60 3 31 72 c17 39 34 69 37 65 4 -4 19 -35 34 -70z"/>
<path d="M8080 1135 l0 -165 30 0 c30 0 30 1 30 55 l0 55 34 0 c29 0 42 -9 84
-56 43 -48 54 -55 81 -52 l32 3 -50 56 -50 56 34 16 c64 30 68 129 8 177 -22
17 -41 20 -129 20 l-104 0 0 -165z m202 98 c21 -19 23 -52 4 -78 -10 -14 -30
-20 -80 -23 l-66 -4 0 61 0 61 62 0 c43 0 67 -5 80 -17z"/>
<path d="M8620 1135 l0 -165 25 0 25 0 0 165 0 165 -25 0 -25 0 0 -165z"/>
<path d="M8981 1141 c-39 -87 -71 -162 -71 -165 0 -3 13 -6 29 -6 25 0 31 6
41 35 l12 35 89 0 89 0 17 -35 c13 -28 22 -35 46 -35 19 0 27 4 24 13 -2 6
-35 81 -73 165 -67 150 -68 152 -100 152 -31 0 -32 -2 -103 -159z m169 -47 c0
-2 -29 -4 -65 -4 -36 0 -65 2 -65 5 0 3 14 37 32 76 l32 72 33 -73 c18 -40 33
-74 33 -76z"/>
</g>
</svg>
